<?xml version="1.0" encoding="UTF-8" standalone="no"?>
<svg
   xmlns:dc="http://purl.org/dc/elements/1.1/"
   xmlns:cc="http://creativecommons.org/ns#"
   xmlns:rdf="http://www.w3.org/1999/02/22-rdf-syntax-ns#"
   xmlns:svg="http://www.w3.org/2000/svg"
   xmlns="http://www.w3.org/2000/svg"
   xmlns:sodipodi="http://sodipodi.sourceforge.net/DTD/sodipodi-0.dtd"
   xmlns:inkscape="http://www.inkscape.org/namespaces/inkscape"
   inkscape:version="1.0 (4035a4fb49, 2020-05-01)"
   sodipodi:docname="Brain Money.svg"
   id="svg78"
   version="1.1"
   viewBox="0 0 500 200"
   height="200pt"
   width="500pt">
  <metadata
     id="metadata84">
    <rdf:RDF>
      <cc:Work
         rdf:about="">
        <dc:format>image/svg+xml</dc:format>
        <dc:type
           rdf:resource="http://purl.org/dc/dcmitype/StillImage" />
        <dc:title></dc:title>
      </cc:Work>
    </rdf:RDF>
  </metadata>
  <defs
     id="defs82" />
  <sodipodi:namedview
     inkscape:current-layer="svg78"
     inkscape:window-maximized="1"
     inkscape:window-y="-8"
     inkscape:window-x="-8"
     inkscape:cy="325.49519"
     inkscape:cx="380.32125"
     inkscape:zoom="0.807"
     units="mm"
     showguides="false"
     showgrid="false"
     id="namedview80"
     inkscape:window-height="705"
     inkscape:window-width="1366"
     inkscape:pageshadow="2"
     inkscape:pageopacity="0"
     guidetolerance="10"
     gridtolerance="10"
     objecttolerance="10"
     borderopacity="1"
     bordercolor="#666666"
     pagecolor="#ffffff">
    <sodipodi:guide
       id="guide909"
       orientation="1,0"
       position="14.869888,164.31227" />
  </sodipodi:namedview>
  <g
     id="#002244ff" />
  <g
     transform="matrix(1.3510357,0,0,1.3510357,-72.873972,-219.865)"
     id="#000000ff">
    <path
       id="path3"
       d="m 70.76,177.67 c 2.8,1.38 5.48,2.96 8.2,4.47 2.75,-1.49 5.46,-3.07 8.25,-4.48 0.45,4.5 0.46,9.02 0.39,13.54 16.18,0.13 32.36,-0.02 48.54,0.07 0.32,6.19 0.12,12.39 0.17,18.58 1.18,0.22 2.37,0.45 3.56,0.68 -0.34,6.17 1.52,12.85 -1.25,18.63 -1.64,-5.4 -0.71,-11.11 -0.92,-16.65 -19.55,0.56 -39.12,0.08 -58.68,0.24 -6.34,-0.22 -13.66,1.39 -18.71,-3.53 0.35,24.86 -0.03,49.74 0.19,74.61 -0.18,2.59 1.68,5.3 4.52,4.89 22.63,0.04 45.27,0.06 67.9,-0.01 3.29,0.49 4.93,-2.93 4.75,-5.74 0.06,-11.99 0,-23.99 0.02,-35.98 -0.06,-2.03 0.45,-3.99 1,-5.92 1.02,1.79 1.45,3.81 1.36,5.86 -0.11,11.35 -0.06,22.71 -0.03,34.07 -0.06,2.94 -0.15,6.37 -2.53,8.49 -1.72,1.66 -4.29,1.41 -6.48,1.54 -22.04,-0.08 -44.09,0.01 -66.13,-0.04 -2.91,0.27 -5.74,-1.72 -6.31,-4.61 -0.78,-4.08 -0.35,-8.27 -0.43,-12.39 -0.02,-22.01 0.07,-44.02 -0.04,-66.02 0.01,-4.46 -0.71,-9.64 2.57,-13.22 2.29,-2.98 6.25,-3.31 9.68,-3.82 -0.06,-4.42 -0.02,-8.85 0.41,-13.26 m 1.93,3.58 c 0,7.75 0,15.5 0,23.25 4.2,0 8.4,0 12.6,0 0,-7.75 0,-15.49 0,-23.24 -2.12,1.2 -4.24,2.39 -6.37,3.56 -2.07,-1.2 -4.15,-2.39 -6.23,-3.57 m 14.88,12.25 c 0.01,4.41 0.08,8.82 -0.14,13.23 -5.62,-0.2 -11.37,0.52 -16.89,-0.36 -0.33,-4.35 -0.03,-8.72 -0.17,-13.08 -3.33,0.21 -7.12,1.05 -8.84,4.25 -3.22,4.96 0.46,12.5 6.49,12.62 21.99,0.2 44,0.03 66.01,0.09 0,-5.59 0,-11.17 0,-16.75 -15.49,0 -30.98,0 -46.46,0 z"
       opacity="1"
       fill="#000000" />
    <path
       id="path5"
       d="m 63.19,218.99 c -0.01,-1.64 0.18,-3.26 0.48,-4.86 2.2,1.53 4.42,3.54 7.31,3.35 21,0.06 42,-0.03 62.99,0.04 1.47,-0.32 1.74,1.41 1.61,2.45 0,19.69 0.04,39.38 -0.02,59.07 0.05,2.72 -1.47,5.61 -4.2,6.42 -1.75,0.4 -3.56,0.28 -5.34,0.31 -19.33,-0.07 -38.67,0.06 -58,-0.06 -3.32,-0.07 -5.03,-3.77 -4.8,-6.71 -0.05,-20 0.01,-40.01 -0.03,-60.01 m 2.29,59.07 c 0.05,1.52 0,3.19 0.93,4.49 1.28,1.11 3.03,0.92 4.59,0.97 18.68,-0.03 37.36,-0.03 56.04,0 1.61,-0.03 3.28,0.02 4.81,-0.56 1.29,-1.34 1.5,-3.23 1.46,-4.99 -0.02,-19.41 -0.01,-38.81 -0.01,-58.22 -20.12,0.01 -40.24,-0.01 -60.37,0.01 -2.54,0.1 -5.01,-0.58 -7.45,-1.18 0.02,19.83 0.01,39.65 0,59.48 z"
       opacity="1"
       fill="#000000" />
    <path
       id="path7"
       d="m 114.97,238.43 c 2.74,-0.06 3.78,2.83 3.46,5.16 -1.1,-1.76 -2.4,-3.38 -3.46,-5.16 z"
       opacity="1"
       fill="#000000" />
  </g>
  <g
     transform="matrix(1.3510357,0,0,1.3510357,-72.873972,-219.865)"
     style="fill:#ffffff"
     id="#ffffffff">
    <path
       style="fill:#ffffff"
       id="path10"
       d="m 72.69,181.25 c 2.08,1.18 4.16,2.37 6.23,3.57 2.13,-1.17 4.25,-2.36 6.37,-3.56 0,7.75 0,15.49 0,23.24 -4.2,0 -8.4,0 -12.6,0 0,-7.75 0,-15.5 0,-23.25 z"
       opacity="1"
       fill="#ffffff" />
    <path
       style="fill:#ffffff"
       id="path12"
       d="m 87.57,193.5 c 15.48,0 30.97,0 46.46,0 0,5.58 0,11.16 0,16.75 -22.01,-0.06 -44.02,0.11 -66.01,-0.09 -6.03,-0.12 -9.71,-7.66 -6.49,-12.62 1.72,-3.2 5.51,-4.04 8.84,-4.25 0.14,4.36 -0.16,8.73 0.17,13.08 5.52,0.88 11.27,0.16 16.89,0.36 0.22,-4.41 0.15,-8.82 0.14,-13.23 z"
       opacity="1"
       fill="#ffffff" />
    <path
       style="fill:#ffffff"
       id="path14"
       d="m 165.89,207.76 c 4.9,0.25 9.97,-0.66 14.75,0.61 5.2,2.09 5.84,9.28 2.27,13.15 6.23,3.34 5.67,13.82 -1.23,15.97 -5.17,1.08 -10.54,0.27 -15.79,0.51 0,-10.08 0,-20.16 0,-30.24 m 4.44,3.99 c 0,2.75 0,5.51 0,8.26 2.88,-0.03 5.79,0.22 8.66,-0.19 3.48,-1.12 3.45,-6.91 -0.11,-7.87 -2.83,-0.4 -5.71,-0.15 -8.55,-0.2 m -0.01,12.38 c 0.01,3.25 0,6.51 0.01,9.76 3.2,-0.03 6.41,0.23 9.6,-0.17 4.22,-1.19 4.26,-8.15 0.05,-9.38 -3.2,-0.44 -6.44,-0.17 -9.66,-0.21 z"
       opacity="1"
       fill="#ffffff" />
    <path
       style="fill:#ffffff"
       id="path16"
       d="m 238.19,208.2 c 3.05,-2.07 5.83,3.23 2.54,4.7 -2.89,1.43 -5.26,-3.1 -2.54,-4.7 z"
       opacity="1"
       fill="#ffffff" />
    <path
       style="fill:#ffffff"
       id="path18"
       d="m 287.06,207.74 c 1.5,0.01 3,0.01 4.5,0.02 3.51,4.85 7.04,9.69 10.55,14.53 3.55,-4.83 7.03,-9.72 10.57,-14.55 1.49,0 2.97,0.01 4.46,0.02 0,10.08 0,20.16 0,30.24 -1.48,0 -2.96,0 -4.44,0 0,-7.74 0.01,-15.47 0,-23.2 -2.96,4.05 -5.89,8.12 -8.85,12.17 -1.16,-0.02 -2.31,-0.03 -3.46,-0.04 -2.93,-4.05 -5.88,-8.09 -8.84,-12.12 -0.01,7.73 -0.01,15.45 0,23.18 -1.5,0 -3,0.01 -4.49,0.01 0,-10.08 0,-20.17 0,-30.26 z"
       opacity="1"
       fill="#ffffff" />
    <path
       style="fill:#ffffff"
       id="path20"
       d="m 60.31,209.22 c 5.05,4.92 12.37,3.31 18.71,3.53 19.56,-0.16 39.13,0.32 58.68,-0.24 0.21,5.54 -0.72,11.25 0.92,16.65 0.42,3.94 0.31,7.95 0.07,11.91 -0.55,1.93 -1.06,3.89 -1,5.92 -0.02,11.99 0.04,23.99 -0.02,35.98 0.18,2.81 -1.46,6.23 -4.75,5.74 -22.63,0.07 -45.27,0.05 -67.9,0.01 -2.84,0.41 -4.7,-2.3 -4.52,-4.89 -0.22,-24.87 0.16,-49.75 -0.19,-74.61 m 2.88,9.77 c 0.04,20 -0.02,40.01 0.03,60.01 -0.23,2.94 1.48,6.64 4.8,6.71 19.33,0.12 38.67,-0.01 58,0.06 1.78,-0.03 3.59,0.09 5.34,-0.31 2.73,-0.81 4.25,-3.7 4.2,-6.42 0.06,-19.69 0.02,-39.38 0.02,-59.07 0.13,-1.04 -0.14,-2.77 -1.61,-2.45 -20.99,-0.07 -41.99,0.02 -62.99,-0.04 -2.89,0.19 -5.11,-1.82 -7.31,-3.35 -0.3,1.6 -0.49,3.22 -0.48,4.86 z"
       opacity="1"
       fill="#ffffff" />
    <path
       style="fill:#ffffff"
       id="path22"
       d="m 194.1,217.37 c 1.68,0.12 3.52,0.18 4.25,2.03 2.32,-2.32 5.58,-2.49 8.66,-2.14 -0.31,1.26 -0.62,2.51 -0.94,3.77 -2.88,-0.4 -6.59,0.22 -7.56,3.42 -0.61,4.48 -0.16,9.04 -0.31,13.55 -1.38,0 -2.76,0 -4.14,0 0.02,-6.88 -0.05,-13.76 0.04,-20.63 z"
       opacity="1"
       fill="#ffffff" />
    <path
       style="fill:#ffffff"
       id="path24"
       d="m 212.28,222.28 c 2.69,-5.21 10.21,-6.9 14.66,-2.88 0.62,-2 2.59,-1.88 4.31,-2.02 0.03,6.87 0,13.74 0.01,20.62 -0.87,0 -2.63,0 -3.51,0 -0.13,-0.52 -0.39,-1.55 -0.52,-2.06 -2.56,2 -5.91,3.33 -9.14,2.11 -6.4,-1.83 -9.26,-10.21 -5.81,-15.77 m 6.15,-0.82 c -4.91,2.71 -4.45,11.25 0.95,13.11 4.47,1.52 8.32,-3.45 7.6,-7.61 -0.13,-4.05 -4.69,-7.81 -8.55,-5.5 z"
       opacity="1"
       fill="#ffffff" />
    <path
       style="fill:#ffffff"
       id="path26"
       d="m 252.94,218.86 c 3.97,-2.72 10.43,-2.34 12.56,2.5 1.65,5.36 0.52,11.11 0.84,16.64 -1.31,0 -2.62,-0.01 -3.93,-0.01 -0.1,-4.64 0.28,-9.31 -0.19,-13.94 -0.95,-4.48 -8.1,-4.01 -9.3,0.08 -0.53,4.59 -0.12,9.24 -0.22,13.86 -1.39,0 -2.77,0.01 -4.15,0.01 0.01,-6.89 -0.05,-13.79 0.03,-20.69 1.56,0.19 3.16,0.41 4.36,1.55 z"
       opacity="1"
       fill="#ffffff" />
    <path
       style="fill:#ffffff"
       id="path28"
       d="m 330.34,217.5 c 7.29,-2.39 14.6,5.28 12.76,12.47 -0.98,6.98 -9.93,11.1 -15.67,6.75 -7.14,-4.59 -5.42,-17.07 2.91,-19.22 m 0.84,3.68 c -5.58,2.15 -5.43,11.42 0.23,13.38 4.07,1.45 7.82,-2.68 7.7,-6.57 0.36,-4.09 -3.71,-8.56 -7.93,-6.81 z"
       opacity="1"
       fill="#ffffff" />
    <path
       style="fill:#ffffff"
       id="path30"
       d="m 353.21,218.84 c 4.14,-2.88 11.07,-2.15 12.79,3.16 1.21,5.22 0.33,10.68 0.6,15.99 -1.32,0 -2.63,0.01 -3.93,0.01 -0.11,-4.63 0.26,-9.28 -0.19,-13.89 -0.87,-4.51 -8.06,-4.1 -9.3,-0.02 -0.54,4.61 -0.12,9.27 -0.23,13.91 -1.39,0 -2.77,0 -4.15,0 0.01,-6.9 -0.03,-13.79 0.02,-20.69 1.58,0.15 3.14,0.47 4.39,1.53 z"
       opacity="1"
       fill="#ffffff" />
    <path
       style="fill:#ffffff"
       id="path32"
       d="m 375.44,220.39 c 3.33,-4.02 10.2,-4.47 13.77,-0.56 2.5,2.62 2.77,6.39 3.14,9.8 -5.21,0.04 -10.42,-0.05 -15.62,0.08 1.39,1.97 2.74,4.45 5.35,4.94 2.58,0.74 5.04,-0.6 7.25,-1.78 0.81,0.84 1.63,1.67 2.44,2.51 -3.99,3.2 -9.98,4.39 -14.39,1.32 -5.39,-3.42 -6.23,-11.69 -1.94,-16.31 m 1.25,5.48 c 3.81,0.15 7.64,0.16 11.46,-0.02 -1,-2.22 -2.27,-5.01 -5.15,-4.99 -3.21,-0.39 -4.92,2.67 -6.31,5.01 z"
       opacity="1"
       fill="#ffffff" />
    <path
       style="fill:#ffffff"
       id="path34"
       d="m 237.56,217.57 c 1.02,-0.01 3.07,-0.01 4.09,-0.01 0.03,6.81 0.03,13.62 0.06,20.44 -1.39,-0.01 -2.77,0 -4.15,0 0,-6.81 0,-13.62 0,-20.43 z"
       opacity="1"
       fill="#ffffff" />
    <path
       style="fill:#ffffff"
       id="path36"
       d="m 396.43,217.56 c 1.53,0 3.06,0 4.6,0 2.1,4.42 4.2,8.84 6.32,13.26 2.06,-4.42 4.12,-8.85 6.19,-13.27 1.14,0.01 3.42,0.02 4.56,0.02 -4.39,9.53 -8.79,19.05 -13.18,28.58 -1.52,0 -3.04,0 -4.56,0 1.57,-3.47 3.14,-6.95 4.73,-10.41 -2.86,-6.07 -5.79,-12.11 -8.66,-18.18 z"
       opacity="1"
       fill="#ffffff" />
    <path
       style="fill:#ffffff"
       id="path38"
       d="m 65.48,278.06 c 0.01,-19.83 0.02,-39.65 0,-59.48 2.44,0.6 4.91,1.28 7.45,1.18 20.13,-0.02 40.25,0 60.37,-0.01 0,19.41 -0.01,38.81 0.01,58.22 0.04,1.76 -0.17,3.65 -1.46,4.99 -1.53,0.58 -3.2,0.53 -4.81,0.56 -18.68,-0.03 -37.36,-0.03 -56.04,0 -1.56,-0.05 -3.31,0.14 -4.59,-0.97 -0.93,-1.3 -0.88,-2.97 -0.93,-4.49 m 25.97,-55.59 c -1.91,0.64 -2.55,2.72 -3.51,4.28 -1.75,0.14 -3.77,-0.21 -5.23,1.01 -1.65,1.03 -1.81,3.16 -2.53,4.8 -2.81,0.58 -6.14,1.06 -7.69,3.85 -2.16,2.76 -1.35,6.29 -0.54,9.39 -4.84,2.98 -4.09,10.58 0.96,12.95 -0.23,2.54 -0.75,5.15 -0.13,7.69 0.83,2.87 3.36,4.67 5.56,6.47 0.47,4.92 5.69,7.96 10.2,5.72 1.31,2.76 4.73,4.36 7.42,2.42 3.83,-3.56 1.47,-9.41 2.11,-13.97 l 2.34,0.11 c 0.65,4.57 -1.92,10.83 2.44,14.06 2.72,1.55 5.67,-0.11 7.05,-2.59 2.2,0.41 4.62,1.05 6.68,-0.21 3.02,-1.5 2.61,-5.69 5.5,-7.33 2.78,-1.78 3.64,-4.99 4.18,-8.04 -0.41,-1.41 -0.78,-2.82 -1.15,-4.23 5.2,-2.22 5.88,-10.2 1.04,-13.16 0.66,-3.06 1.55,-6.55 -0.48,-9.31 -1.48,-2.85 -4.85,-3.42 -7.7,-3.92 -0.68,-1.66 -0.95,-3.71 -2.52,-4.83 -1.45,-1.35 -3.61,-0.88 -5.41,-1.07 -0.85,-2.8 -3.62,-5.85 -6.79,-4.19 -5.22,2.83 -2.35,9.76 -3.06,14.5 -0.59,-0.01 -1.76,-0.03 -2.35,-0.04 -0.02,-3.3 0.12,-6.61 -0.06,-9.9 0.01,-3.02 -3.45,-5.7 -6.33,-4.46 z"
       opacity="1"
       fill="#ffffff" />
    <path
       style="fill:#ffffff"
       id="path40"
       d="m 89.62,226.74 c 0.62,-2.72 4.45,-4.17 6.02,-1.51 1.08,3.8 0.31,7.87 0.48,11.79 -5.04,1.16 -9.59,4.74 -11.31,9.71 -2.24,5.86 -0.35,13.05 4.59,16.95 1.97,1.62 4.44,2.39 6.75,3.37 -0.04,3.61 0.18,7.24 -0.11,10.84 -0.56,2.87 -5.3,3.11 -5.8,0.1 0.13,-1.67 0.46,-3.32 0.66,-4.99 -1.69,1.84 -2.95,4.88 -5.89,4.66 -2.71,0.49 -3.99,-2.1 -5.19,-3.98 0.81,-0.19 2.43,-0.58 3.25,-0.77 -4.46,-1.56 -9.76,-4.36 -9.35,-9.9 -0.17,-4.04 4.1,-5.69 5.32,-9.04 -1.89,0.94 -3.61,2.15 -5.3,3.4 -3.42,-1.57 -5.62,-6.25 -2.33,-9.11 1.28,-2.1 3.5,-0.33 5.24,-0.06 -2.59,-2.55 -5.44,-6.26 -3.48,-10.03 1.19,-3.3 4.85,-4.05 7.96,-4.04 0.89,-1.97 0.85,-4.87 3.29,-5.63 2.15,-0.81 4.14,0.8 6.13,1.41 -0.3,-1.06 -0.61,-2.12 -0.93,-3.17 m -10.37,15.7 c 0.45,0.07 1.33,0.21 1.77,0.28 0.59,-1.61 1.26,-3.18 1.87,-4.78 -1.87,0.9 -2.95,2.6 -3.64,4.5 m 0.93,18.89 c 0.42,2.33 1.07,4.99 3.65,5.76 -0.68,-1.93 -1.48,-3.82 -2.07,-5.78 -0.39,0.01 -1.19,0.02 -1.58,0.02 z"
       opacity="1"
       fill="#ffffff" />
    <path
       style="fill:#ffffff"
       id="path42"
       d="m 101.96,226.07 c 0.93,-3.4 5.66,-2.3 6.5,0.66 -0.28,0.78 -0.84,2.35 -1.12,3.13 2.16,-0.72 4.36,-2.48 6.69,-1.31 2.06,1.02 1.94,3.7 2.84,5.54 3.21,-0.07 7,0.84 8.07,4.33 1.73,3.78 -1.13,7.2 -3.73,9.64 1.92,-0.54 4.73,-1.81 5.87,0.72 2.46,3.06 0.36,7.11 -2.79,8.63 -1.68,-1.27 -3.4,-2.5 -5.25,-3.5 0.95,3.47 5.51,4.96 5.23,9.03 0.54,5.52 -4.81,8.45 -9.26,9.94 0.8,0.21 2.4,0.62 3.21,0.83 -1.19,1.9 -2.57,4.51 -5.28,3.94 -2.92,0.2 -4.13,-2.79 -5.51,-4.78 0.05,1.76 0.26,3.5 0.25,5.26 -0.55,2.96 -5.19,2.51 -5.72,-0.25 -0.43,-3.59 -0.13,-7.22 -0.19,-10.82 6.4,-1.72 12.05,-7.08 12.2,-14.02 0.81,-7.53 -4.9,-14.56 -12.18,-16.03 0.03,-3.65 -0.27,-7.32 0.17,-10.94 m 13.01,12.36 c 1.06,1.78 2.36,3.4 3.46,5.16 0.32,-2.33 -0.72,-5.22 -3.46,-5.16 m 2.05,22.09 c -0.72,1.91 -1.45,3.85 -2.62,5.54 0.36,0.22 1.08,0.66 1.43,0.88 1.12,-1.89 2.91,-4.31 1.19,-6.42 z"
       opacity="1"
       fill="#ffffff" />
    <path
       style="fill:#ffffff"
       id="path44"
       d="m 95.15,238.95 c 8.24,-2.84 17.92,4.27 17.42,13.02 0.51,8.46 -8.52,15.36 -16.59,13.09 -8.59,-1.54 -13.11,-12.38 -8.69,-19.76 1.73,-2.97 4.58,-5.29 7.86,-6.35 m 2.99,5.55 c -1.6,1.21 -4.15,2.52 -3.46,4.97 0.93,3.93 6.12,2.51 8.1,5.54 -1.08,1.04 -1.9,3.02 -3.72,2.79 -1.74,-0.71 -3.14,-2.04 -4.89,-2.71 0.81,1.91 2.22,3.43 3.94,4.58 0.44,0.95 0.84,1.93 1.15,2.94 0.19,-0.74 0.56,-2.21 0.74,-2.95 1.49,-1.26 3.94,-2.28 3.57,-4.66 0.56,-5.26 -9.96,-2.44 -6.85,-8.09 2.67,-1.49 4.99,0.51 6.78,2.29 -0.04,-0.6 -0.13,-1.79 -0.17,-2.39 -1.12,-0.78 -2.25,-1.56 -3.39,-2.31 -0.15,-0.75 -0.46,-2.26 -0.62,-3.01 -0.38,1.01 -0.77,2.01 -1.18,3.01 z"
       opacity="1"
       fill="#ffffff" />
    <path
       style="fill:#ffffff"
       id="path46"
       d="m 165.3,259.31 c 4.61,0 9.22,0 13.83,0 0.01,0.75 0.01,2.25 0.01,3 -3.5,0.01 -7.01,-0.01 -10.51,0 -0.01,2.06 -0.01,4.12 0,6.19 3.12,0 6.25,-0.01 9.38,0 -0.01,0.78 -0.02,2.33 -0.02,3.1 -3.12,-0.01 -6.24,-0.01 -9.36,0 -0.01,2.43 -0.01,4.86 0,7.29 3.5,0 7,-0.01 10.51,0 0,0.78 0,2.33 0,3.11 -4.62,0 -9.23,0 -13.85,0 0.01,-7.57 0,-15.13 0.01,-22.69 z"
       opacity="1"
       fill="#ffffff" />
    <path
       style="fill:#ffffff"
       id="path48"
       d="m 195.84,258.64 c 0.78,0 2.34,0 3.12,0 -0.03,7.9 0.04,15.8 -0.04,23.7 -1.2,-0.42 -2.38,-0.85 -3.56,-1.29 -2.39,1.25 -5.34,1.96 -7.8,0.44 -5.41,-2.91 -5.16,-12.04 0.5,-14.52 2.59,-1.34 5.51,-0.36 7.87,0.99 -0.11,-3.11 -0.1,-6.22 -0.09,-9.32 m -6.4,10.94 c -4.29,2.03 -3.18,9.81 1.73,10.04 3.51,0.29 5.31,-3.74 4.52,-6.72 -0.19,-2.95 -3.71,-4.68 -6.25,-3.32 z"
       opacity="1"
       fill="#ffffff" />
    <path
       style="fill:#ffffff"
       id="path50"
       d="m 273.45,259.65 c 2.32,-1.61 4.4,2.73 1.66,3.57 -2.14,0.9 -3.7,-2.59 -1.66,-3.57 z"
       opacity="1"
       fill="#ffffff" />
    <path
       style="fill:#ffffff"
       id="path52"
       d="m 261.42,262.58 c 0.77,0 2.32,0 3.1,0 -0.01,1.36 -0.01,2.72 -0.01,4.09 1.39,0 2.77,0 4.16,0.01 0,0.69 0,2.08 0,2.77 -1.39,0 -2.77,0 -4.14,0.01 0.02,3.04 -0.19,6.09 0.12,9.13 0.31,1.53 2.29,0.98 3.37,1.42 0.17,0.54 0.5,1.62 0.67,2.16 -2.21,0.19 -5.23,0.98 -6.52,-1.47 -1.43,-3.53 -0.53,-7.49 -0.76,-11.19 -0.68,-0.05 -2.04,-0.15 -2.72,-0.2 0.36,-1.45 1.41,-2.33 2.69,-2.96 0.01,-1.26 0.03,-2.52 0.04,-3.77 z"
       opacity="1"
       fill="#ffffff" />
    <path
       style="fill:#ffffff"
       id="path54"
       d="m 204.65,266.67 c 0.98,0 1.95,0 2.93,0 0.05,3.45 -0.19,6.92 0.15,10.36 0.53,3.51 6.27,3.16 7.01,-0.07 0.37,-3.41 0.11,-6.86 0.16,-10.29 0.78,0 2.33,0 3.11,0 0,5.22 0.02,10.43 -0.01,15.65 -1.17,-0.43 -2.36,-0.78 -3.56,-1.07 -3.09,1.64 -7.87,1.43 -9.26,-2.31 -1.05,-3.98 -0.36,-8.19 -0.53,-12.27 z"
       opacity="1"
       fill="#ffffff" />
    <path
       style="fill:#ffffff"
       id="path56"
       d="m 227.05,267.1 c 3.34,-1.85 7.12,-0.14 9.62,2.28 -2.3,3.14 -4.83,-1.24 -7.55,-0.01 -4.6,1.42 -4.28,9 0.35,10.13 2.1,0.66 3.73,-1.1 5.3,-2.17 0.47,0.49 1.42,1.45 1.89,1.94 -2.56,2.65 -6.71,4.27 -10.08,2.08 -5.34,-2.92 -5.08,-11.7 0.47,-14.25 z"
       opacity="1"
       fill="#ffffff" />
    <path
       style="fill:#ffffff"
       id="path58"
       d="m 253.43,266.56 c 0.54,0.04 1.6,0.13 2.14,0.17 -0.02,5.18 0.02,10.37 -0.03,15.55 -1.21,-0.28 -2.5,-0.49 -3.21,-1.63 -3.17,2.71 -8.29,2.02 -10.57,-1.49 -3.3,-4.24 -1.03,-11.4 4.32,-12.61 2.25,-0.79 4.38,0.48 6.4,1.33 0.24,-0.33 0.71,-0.99 0.95,-1.32 m -7.07,2.83 c -3.84,1.7 -3.96,7.88 -0.26,9.81 2.87,1.56 6.16,-1.22 6.27,-4.18 0.61,-3.26 -2.62,-7.1 -6.01,-5.63 z"
       opacity="1"
       fill="#ffffff" />
    <path
       style="fill:#ffffff"
       id="path60"
       d="m 286.4,266.5 c 5.6,-1.44 10.73,4.74 8.97,10.06 -1.12,5.14 -8.01,7.72 -12.04,4.15 -5.09,-3.77 -3.27,-12.99 3.07,-14.21 m 0,2.96 c -4.16,1.79 -3.79,8.81 0.6,10.06 3.59,0.92 6.29,-3.34 5.38,-6.51 -0.44,-2.62 -3.41,-4.8 -5.98,-3.55 z"
       opacity="1"
       fill="#ffffff" />
    <path
       style="fill:#ffffff"
       id="path62"
       d="m 305.48,266.69 c 3.08,-1.19 6.96,0.85 7.38,4.21 0.44,3.68 0.16,7.4 0.21,11.1 -0.74,0 -2.22,0 -2.96,0 -0.07,-3.64 0.3,-7.32 -0.27,-10.92 -1.21,-3.06 -6.48,-2.23 -6.88,0.94 -0.29,3.31 -0.1,6.65 -0.12,9.97 -0.77,0.01 -2.33,0.01 -3.1,0.01 0,-5.14 -0.02,-10.28 0,-15.42 1.9,0.61 3.85,0.93 5.74,0.11 z"
       opacity="1"
       fill="#ffffff" />
    <path
       style="fill:#ffffff"
       id="path64"
       d="m 272.92,266.67 c 0.77,0 2.3,0 3.07,0 0.01,5.11 0.02,10.22 0.04,15.33 -0.78,0 -2.33,0 -3.11,0 0,-5.11 0,-10.22 0,-15.33 z"
       opacity="1"
       fill="#ffffff" />
  </g>
  <g
     transform="matrix(1.3510357,0,0,1.3510357,-72.873972,-219.865)"
     id="#1f1f1fff">
    <path
       id="path67"
       d="m 91.45,222.47 c 2.88,-1.24 6.34,1.44 6.33,4.46 0.18,3.29 0.04,6.6 0.06,9.9 0.59,0.01 1.76,0.03 2.35,0.04 0.71,-4.74 -2.16,-11.67 3.06,-14.5 3.17,-1.66 5.94,1.39 6.79,4.19 1.8,0.19 3.96,-0.28 5.41,1.07 1.57,1.12 1.84,3.17 2.52,4.83 2.85,0.5 6.22,1.07 7.7,3.92 2.03,2.76 1.14,6.25 0.48,9.31 4.84,2.96 4.16,10.94 -1.04,13.16 0.37,1.41 0.74,2.82 1.15,4.23 -0.54,3.05 -1.4,6.26 -4.18,8.04 -2.89,1.64 -2.48,5.83 -5.5,7.33 -2.06,1.26 -4.48,0.62 -6.68,0.21 -1.38,2.48 -4.33,4.14 -7.05,2.59 -4.36,-3.23 -1.79,-9.49 -2.44,-14.06 l -2.34,-0.11 c -0.64,4.56 1.72,10.41 -2.11,13.97 -2.69,1.94 -6.11,0.34 -7.42,-2.42 -4.51,2.24 -9.73,-0.8 -10.2,-5.72 -2.2,-1.8 -4.73,-3.6 -5.56,-6.47 -0.62,-2.54 -0.1,-5.15 0.13,-7.69 -5.05,-2.37 -5.8,-9.97 -0.96,-12.95 -0.81,-3.1 -1.62,-6.63 0.54,-9.39 1.55,-2.79 4.88,-3.27 7.69,-3.85 0.72,-1.64 0.88,-3.77 2.53,-4.8 1.46,-1.22 3.48,-0.87 5.23,-1.01 0.96,-1.56 1.6,-3.64 3.51,-4.28 m -1.83,4.27 c 0.32,1.05 0.63,2.11 0.93,3.17 -1.99,-0.61 -3.98,-2.22 -6.13,-1.41 -2.44,0.76 -2.4,3.66 -3.29,5.63 -3.11,-0.01 -6.77,0.74 -7.96,4.04 -1.96,3.77 0.89,7.48 3.48,10.03 -1.74,-0.27 -3.96,-2.04 -5.24,0.06 -3.29,2.86 -1.09,7.54 2.33,9.11 1.69,-1.25 3.41,-2.46 5.3,-3.4 -1.22,3.35 -5.49,5 -5.32,9.04 -0.41,5.54 4.89,8.34 9.35,9.9 -0.82,0.19 -2.44,0.58 -3.25,0.77 1.2,1.88 2.48,4.47 5.19,3.98 2.94,0.22 4.2,-2.82 5.89,-4.66 -0.2,1.67 -0.53,3.32 -0.66,4.99 0.5,3.01 5.24,2.77 5.8,-0.1 0.29,-3.6 0.07,-7.23 0.11,-10.84 -2.31,-0.98 -4.78,-1.75 -6.75,-3.37 -4.94,-3.9 -6.83,-11.09 -4.59,-16.95 1.72,-4.97 6.27,-8.55 11.31,-9.71 -0.17,-3.92 0.6,-7.99 -0.48,-11.79 -1.57,-2.66 -5.4,-1.21 -6.02,1.51 m 12.34,-0.67 c -0.44,3.62 -0.14,7.29 -0.17,10.94 7.28,1.47 12.99,8.5 12.18,16.03 -0.15,6.94 -5.8,12.3 -12.2,14.02 0.06,3.6 -0.24,7.23 0.19,10.82 0.53,2.76 5.17,3.21 5.72,0.25 0.01,-1.76 -0.2,-3.5 -0.25,-5.26 1.38,1.99 2.59,4.98 5.51,4.78 2.71,0.57 4.09,-2.04 5.28,-3.94 -0.81,-0.21 -2.41,-0.62 -3.21,-0.83 4.45,-1.49 9.8,-4.42 9.26,-9.94 0.28,-4.07 -4.28,-5.56 -5.23,-9.03 1.85,1 3.57,2.23 5.25,3.5 3.15,-1.52 5.25,-5.57 2.79,-8.63 -1.14,-2.53 -3.95,-1.26 -5.87,-0.72 2.6,-2.44 5.46,-5.86 3.73,-9.64 -1.07,-3.49 -4.86,-4.4 -8.07,-4.33 -0.9,-1.84 -0.78,-4.52 -2.84,-5.54 -2.33,-1.17 -4.53,0.59 -6.69,1.31 0.28,-0.78 0.84,-2.35 1.12,-3.13 -0.84,-2.96 -5.57,-4.06 -6.5,-0.66 m -6.81,12.88 c -3.28,1.06 -6.13,3.38 -7.86,6.35 -4.42,7.38 0.1,18.22 8.69,19.76 8.07,2.27 17.1,-4.63 16.59,-13.09 0.5,-8.75 -9.18,-15.86 -17.42,-13.02 z"
       opacity="1"
       fill="#1f1f1f" />
    <path
       id="path69"
       d="m 79.25,242.44 c 0.69,-1.9 1.77,-3.6 3.64,-4.5 -0.61,1.6 -1.28,3.17 -1.87,4.78 -0.44,-0.07 -1.32,-0.21 -1.77,-0.28 z"
       opacity="1"
       fill="#1f1f1f" />
    <path
       id="path71"
       d="m 98.14,244.5 c 0.41,-1 0.8,-2 1.18,-3.01 0.16,0.75 0.47,2.26 0.62,3.01 1.14,0.75 2.27,1.53 3.39,2.31 0.04,0.6 0.13,1.79 0.17,2.39 -1.79,-1.78 -4.11,-3.78 -6.78,-2.29 -3.11,5.65 7.41,2.83 6.85,8.09 0.37,2.38 -2.08,3.4 -3.57,4.66 -0.18,0.74 -0.55,2.21 -0.74,2.95 -0.31,-1.01 -0.71,-1.99 -1.15,-2.94 -1.72,-1.15 -3.13,-2.67 -3.94,-4.58 1.75,0.67 3.15,2 4.89,2.71 1.82,0.23 2.64,-1.75 3.72,-2.79 -1.98,-3.03 -7.17,-1.61 -8.1,-5.54 -0.69,-2.45 1.86,-3.76 3.46,-4.97 z"
       opacity="1"
       fill="#1f1f1f" />
    <path
       id="path73"
       d="m 80.18,261.33 c 0.39,0 1.19,-0.01 1.58,-0.02 0.59,1.96 1.39,3.85 2.07,5.78 -2.58,-0.77 -3.23,-3.43 -3.65,-5.76 z"
       opacity="1"
       fill="#1f1f1f" />
    <path
       id="path75"
       d="m 117.02,260.52 c 1.72,2.11 -0.07,4.53 -1.19,6.42 -0.35,-0.22 -1.07,-0.66 -1.43,-0.88 1.17,-1.69 1.9,-3.63 2.62,-5.54 z"
       opacity="1"
       fill="#1f1f1f" />
  </g>
</svg>
